<svg xmlns="http://www.w3.org/2000/svg" x="0px" y="0px" width="24" height="24j" viewBox="0,0,256,256">

<g transform=""><g fill="none" fill-rule="nonzero" stroke="none" stroke-width="none" stroke-linecap="butt" stroke-linejoin="none" stroke-miterlimit="10" stroke-dasharray="" stroke-dashoffset="0" font-family="none" font-weight="none" font-size="none" text-anchor="none" style="mix-blend-mode: normal"><path transform="translate(261.14005,3.84439) rotate(92) scale(5.33333,5.33333)" d="M12.7,45c-5.4,0 -9.7,-4.4 -9.7,-9.7c0,-7.6 4.6,-9.3 9.4,-11c2.5,-0.9 5.2,-1.8 7.6,-3.7c1.8,-1.3 3.4,-2.9 5,-4.6c1.62035,-1.77467 2.94302,-2.95398 3.60051,-3.58387c-0.23479,-0.117 -0.43896,-0.25458 -0.60051,-0.41613c0,0 2.8,-5.3 10,-3c2.8,-2 5,-6 5,-6l2,2c0,0 -2.2,3.8 -4,6c1.4,1.8 3.1,4.8 1,10c-0.35681,-0.10194 -0.70784,-0.31359 -1.04476,-0.59472c-1.29147,10.36965 -14.14005,24.59472 -28.25524,24.59472z" id="strokeMainSVG" fill="#b2adad" stroke="#b2adad" stroke-width="2" stroke-linejoin="round"></path><g transform="translate(261.14005,3.84439) rotate(92) scale(5.33333,5.33333)" stroke="none" stroke-width="1" stroke-linejoin="miter"><path d="M12.7,45c-5.4,0 -9.7,-4.4 -9.7,-9.7c0,-7.6 4.6,-9.3 9.4,-11c2.5,-0.9 5.2,-1.8 7.6,-3.7c1.8,-1.3 3.4,-2.9 5,-4.6c2.1,-2.3 3.7,-3.6 4,-4c0.2,-0.3 2.8,-1.5 3,-1.3c0,0 4.2,-1.4 7,1.3c2.8,2.7 2,7.7 2,8c-1,10.4 -14,25 -28.3,25z" fill="#4a148c"></path><path d="M43,3l2,2c0,0 -2.2,3.8 -4,6c1.4,1.8 3.1,4.8 1,10c-2.1,-0.6 -4,-5 -4,-5c0,0 -1.2,1.5 -5,2c-0.3,-3.7 1,-5 1,-5c0,0 -4.6,0.4 -6,-1c0,0 2.8,-5.3 10,-3c2.8,-2 5,-6 5,-6z" fill="#4caf50"></path><path d="M7,36c-0.5,0 -0.9,-0.3 -1,-0.8c0,-0.2 -0.7,-4.3 5.6,-7.1c0.7,-0.3 1.4,-0.6 2.1,-0.9c5.1,-2.2 10.3,-4.5 14.6,-9.8c0.3,-0.4 1,-0.5 1.4,-0.2c0.4,0.3 0.5,1 0.2,1.4c-4.6,5.7 -10.3,8.2 -15.3,10.4c-0.7,0.3 -1.4,0.6 -2,0.9c-4.9,2.1 -4.6,4.8 -4.6,4.9c0.1,0.5 -0.3,1 -0.8,1.1c-0.1,0.1 -0.2,0.1 -0.2,0.1z" fill="#9575cd"></path></g></g></g>
</svg>