<svg xmlns="http://www.w3.org/2000/svg" x="0px" y="0px" width="32" height="32" viewBox="0,0,256,256">
<g fill="none" fill-rule="nonzero" stroke="none" stroke-width="1" stroke-linecap="butt" stroke-linejoin="miter" stroke-miterlimit="10" stroke-dasharray="" stroke-dashoffset="0" font-family="none" font-weight="none" font-size="none" text-anchor="none" style="mix-blend-mode: normal"><g transform="translate(-85.34079,78.17957) rotate(-33) scale(4,4)"><g><path d="M18,60h26c1.65685,0 3,1.34315 3,3v0h-32v0c0,-1.65685 1.34315,-3 3,-3z" fill="#ea8887"></path><path d="M30,9l-0.515,-0.172c-0.6248,-0.20816 -1.12846,-0.67729 -1.3804,-1.28576c-0.25194,-0.60846 -0.22735,-1.29633 0.0674,-1.88524v0c1.14822,-2.29788 3.32708,-3.90721 5.861,-4.329v0c1.29154,-0.21648 2.61644,-0.11348 3.859,0.3l0.032,0.01c2.54647,0.84968 4.5002,2.91523 5.207,5.505l1.037,3.8c0.16671,0.60297 -0.01267,1.24873 -0.4665,1.67932c-0.45383,0.43059 -1.10812,0.57582 -1.7015,0.37768v0z" fill="#f6afad"></path><path d="M44.168,10.949l-1.037,-3.8c-0.70825,-2.58786 -2.66174,-4.65128 -5.207,-5.5l-0.032,-0.01c-1.24256,-0.41348 -2.56746,-0.51648 -3.859,-0.3v0c-0.234,0.039 -0.46,0.1 -0.687,0.157c0.182,0.047 0.366,0.086 0.546,0.146l0.032,0.01c2.54647,0.84968 4.5002,2.91523 5.207,5.505l1.037,3.8c0.12989,0.466 0.0503,0.96546 -0.218,1.368l2.05,0.675c0.59212,0.19698 1.24458,0.05226 1.6979,-0.37658c0.45331,-0.42885 0.63396,-1.07229 0.4701,-1.67442z" fill="#ec9b98"></path><path d="M49.07,55.68c0,1.44 -0.02,2.88 -0.07,4.32h-37.16c-1.60774,-0.00475 -2.94917,-1.22934 -3.1,-2.83c-0.03,-0.34 -0.05,-0.68 -0.05,-1.02c0.00116,-4.41151 2.56948,-8.41899 6.57721,-10.26276c4.00773,-1.84377 8.722,-1.18668 12.07279,1.68276l1.66,1.43c-0.51141,-6.353 -0.69832,-12.72795 -0.56,-19.1c0.01,-0.82 0.03,-1.64 0.06,-2.46c0.18,-5.47 0.59667,-10.92333 1.25,-16.36v-0.01l0.25,-2.07l12,4l0.78,2.53l0.45,1.44l0.27,0.9c0.2,0.65 0.39,1.29 0.57,1.95c3.31848,11.66428 5.00121,23.73285 5,35.86z" fill="#f8c2c2"></path><path d="M44.07,19.82c-0.27,-0.96 -0.55,-1.9 -0.84,-2.85l-1.23,-3.97l-2.428,-0.809l0.658,2.248c0.29,1.006 0.57,2 0.84,3.017c3.32269,12.38301 5.00375,25.14896 5,37.97c0,1.525 -0.02,3.049 -0.07,4.574h3c0.05,-1.44 0.07,-2.88 0.07,-4.32c0.00121,-12.12715 -1.68152,-24.19572 -5,-35.86z" fill="#f5b0ad"></path><path d="M44.07,19.82l-14.32,-8.75l0.25,-2.07l12,4l1.23,3.97c0.29,0.95 0.57,1.89 0.84,2.85z" fill="#e37671"></path><path d="M41.37,20.64c-0.75776,0.93739 -0.94905,2.2114 -0.5,3.33c0.79288,1.98331 0.32888,4.24823 -1.18,5.76l-0.98,0.98c-0.39434,0.38674 -1.02566,0.38674 -1.42,0c-0.38998,-0.39301 -0.38998,-1.02699 0,-1.42l0.98,-0.98c0.94969,-0.93706 1.24171,-2.35377 0.74,-3.59c-0.71045,-1.78661 -0.40895,-3.81693 0.79,-5.32l2.98,-3.87l0.45,1.44l0.27,0.9z" fill="#fbdada"></path><path d="M35.78,42.62c-0.18865,0.23874 -0.47573,0.3786 -0.78,0.38c-0.22611,0.00189 -0.44565,-0.07601 -0.62,-0.22l-2.5,-2c-0.87405,-0.69203 -1.43544,-1.70455 -1.55937,-2.81248c-0.12394,-1.10793 0.19984,-2.21946 0.89937,-3.08752c0.75599,-0.95172 0.6043,-2.33477 -0.34,-3.1l-2.44,-1.88c0.01,-0.82 0.03,-1.64 0.06,-2.46l3.61,2.77c0.87389,0.69396 1.43568,1.70716 1.56138,2.81597c0.1257,1.10881 -0.19502,2.22206 -0.89138,3.09403c-0.36489,0.45652 -0.5339,1.03908 -0.47,1.62c0.0672,0.57992 0.35776,1.11081 0.81,1.48l2.5,2c0.21023,0.1621 0.34588,0.40241 0.37602,0.66617c0.03014,0.26375 -0.04778,0.52848 -0.21602,0.73383z" fill="#fbdada"></path><ellipse cx="-13.68021" cy="49.57547" transform="rotate(-32.504)" rx="3" ry="1.19" fill="#ffffff"></ellipse><ellipse cx="20.5" cy="47" rx="1.5" ry="1" fill="#ffffff"></ellipse></g></g></g>
</svg>