<svg xmlns="http://www.w3.org/2000/svg" x="90px" y="0px" width="24" height="24" viewBox="0,0,256,256" >
<g fill="#000000" fill-rule="nonzero" stroke="none" stroke-width="1" stroke-linecap="butt"  stroke-linejoin="miter" stroke-miterlimit="10" stroke-dasharray="" stroke-dashoffset="0" font-family="none" font-weight="none" font-size="none" text-anchor="none" style="mix-blend-mode: normal"><g transform="translate(-5.72512,261.72512) rotate(-90) scale(10.66667,10.66667)"><path d="M19.15625,3.03516c-0.883,-0.01488 -1.91848,0.18845 -3.10352,0.69531v0.00195c-0.80229,0.34397 -1.32092,0.42434 -1.76953,0.53711c-0.22431,0.05638 -0.44443,0.12109 -0.6582,0.26563c-0.21377,0.14453 -0.38775,0.37039 -0.49805,0.63086c-0.25397,0.59997 -0.07085,1.26147 0.32617,1.72852c0.39702,0.46705 0.97889,0.82589 1.66797,1.12891c1.37815,0.60603 3.20385,0.9668 4.875,0.9668c1.81118,0 3.00391,-1.17812 3.00391,-2.51758c0,-0.90891 -0.50215,-2.08409 -1.6543,-2.82031c-0.57607,-0.36811 -1.30645,-0.60231 -2.18945,-0.61719zM12.09961,6.46094l-9.04883,3.78906c-1.25,0.52 -2.05078,1.75062 -2.05078,3.14063v4.97852c0,1.99 1.6,3.66992 3.5,3.66992c1.93,0 3.5,-1.57 3.5,-3.5c0,-1 -0.42969,-1.94914 -1.17969,-2.61914c-0.2,-0.18 -0.22102,-0.49922 -0.04102,-0.69922c0.18,-0.21 0.50094,-0.23102 0.71094,-0.04101c0.96,0.85 1.50977,2.07937 1.50977,3.35937c0,1.25 -0.51961,2.39094 -1.34961,3.21094c0.42,0.17 0.88008,0.25 1.33008,0.25c2.22,0 4.0293,-1.80906 4.0293,-4.03906c0,-1.64 -0.98024,-3.10047 -2.49024,-3.73047c0.26,-0.13 0.52984,-0.26969 0.83984,-0.42969c1.71,-0.87 4.16078,-2.12156 7.55078,-3.85156c-2.59,-0.21 -5.39922,-1.13875 -6.44922,-2.71875c-0.17,-0.25 -0.29133,-0.50953 -0.36133,-0.76953z"></path></g></g>
</svg>