<svg xmlns="http://www.w3.org/2000/svg" x="0px" y="0px" width="32" height="32" viewBox="0,0,256,256">
<g fill="none" fill-rule="nonzero" stroke="none" stroke-width="1" stroke-linecap="butt" stroke-linejoin="miter" stroke-miterlimit="10" stroke-dasharray="" stroke-dashoffset="0" font-family="none" font-weight="none" font-size="none" text-anchor="none" style="mix-blend-mode: normal"><g transform="translate(-4.1843,259.88591) rotate(-90) scale(8,8)"><path d="M24.94,12.3c-3,2.74 -5.25,0.74 -6.67,3.16c-0.57,0.86 -0.33,2.4 -1.62,3.89c-1.02894,1.32507 -2.58446,2.1357 -4.26,2.22c-3.9,0.36 -3.46,3.4 -4.3,4.91c-0.70972,1.29728 -1.95238,2.2183 -3.4,2.52c-1.15,0.22 -2.29,0 -3.69,1.25c1.27,-1.46 2.55,-1.42 3.56,-1.76c1.18137,-0.41133 2.12153,-1.32222 2.57,-2.49c0.47,-1.17 0,-2.5 1.09,-4c0.83896,-1.34452 2.21623,-2.26269 3.78,-2.52c3.52,-0.8 2.57,-3.48 3.35,-5.35c0.72899,-1.74123 2.19488,-3.06786 4,-3.62c1.87,-0.46 2,-0.48 2.58,-1.2z" fill="#a1d8df"></path><path d="M27.63,12.6c-2.48,2.48 -4.89,0.5 -6.43,-1c-1.54,-1.5 -3.53,-4 -1.05,-6.43c3.59,-3.59 8.47,-4.09 10,-2.54c1.53,1.55 1.07,6.37 -2.52,9.97z" fill="#d1e6e9"></path></g></g>
</svg>